<svg viewBox="0 0 20 20" xmlns="http://www.w3.org/2000/svg" xmlns:xlink="http://www.w3.org/1999/xlink" width="20.000000" height="20.000000" fill="none">
	<rect id="icn favorite" width="20.000000" height="20.000000" x="0.000000" y="0.000000" fill="rgb(255,255,255)" fill-opacity="0" />
	<path id="Vector" d="M14.032 3.75C14.487 3.74962 14.9376 3.84008 15.3572 4.01609C15.7768 4.1921 16.1571 4.45011 16.4757 4.775C17.1322 5.44149 17.5002 6.33947 17.5002 7.275C17.5002 8.21053 17.1322 9.10851 16.4757 9.775L10.0007 16.3312L3.52571 9.775C2.8692 9.10851 2.50121 8.21053 2.50121 7.275C2.50121 6.33947 2.8692 5.44149 3.52571 4.775C3.84452 4.45035 4.22482 4.19247 4.64441 4.01643C5.06399 3.8404 5.51445 3.74973 5.96946 3.74973C6.42448 3.74973 6.87493 3.8404 7.29452 4.01643C7.7141 4.19247 8.09441 4.45035 8.41321 4.775L10.0007 6.4L11.582 4.7875C11.8996 4.45874 12.2803 4.19741 12.7013 4.01915C13.1222 3.84089 13.5748 3.74935 14.032 3.75ZM14.032 2.5C13.4105 2.49948 12.7951 2.62304 12.222 2.86344C11.6489 3.10384 11.1296 3.45625 10.6945 3.9L10.0007 4.6L9.30696 3.9C8.87131 3.45705 8.35184 3.10526 7.77883 2.86512C7.20583 2.62498 6.59075 2.50131 5.96946 2.50131C5.34818 2.50131 4.7331 2.62498 4.1601 2.86512C3.58709 3.10526 3.06762 3.45705 2.63196 3.9C1.74564 4.80227 1.24902 6.01648 1.24902 7.28125C1.24902 8.54603 1.74564 9.76023 2.63196 10.6625L10.0007 18.125L17.3695 10.6625C18.2558 9.76023 18.7524 8.54603 18.7524 7.28125C18.7524 6.01648 18.2558 4.80227 17.3695 3.9C16.9339 3.45682 16.4145 3.10478 15.8415 2.86441C15.2685 2.62405 14.6533 2.50017 14.032 2.5Z" fill="rgb(189.125,189.125,189.125)" fill-rule="nonzero" />
	<path id="Vector" d="M9.56074 4.15606L9.30696 3.9C8.87131 3.45705 8.35184 3.10526 7.77883 2.86512C7.20583 2.62498 6.59075 2.50131 5.96946 2.50131C5.34818 2.50131 4.7331 2.62498 4.1601 2.86512C3.58709 3.10526 3.06762 3.45705 2.63196 3.9C1.74564 4.80227 1.24902 6.01648 1.24902 7.28125C1.24902 8.54603 1.74564 9.76023 2.63196 10.6625L9.56154 17.6802L10.0007 18.125L10.4399 17.6802L17.3695 10.6625C18.2558 9.76023 18.7524 8.54603 18.7524 7.28125C18.7524 6.01648 18.2558 4.80227 17.3695 3.9C16.9339 3.45682 16.4145 3.10478 15.8415 2.86441C15.2685 2.62405 14.6533 2.50017 14.032 2.5C13.4105 2.49948 12.7951 2.62304 12.222 2.86344C11.6489 3.10384 11.1296 3.45625 10.6945 3.9L10.4407 4.15606L10.0007 4.6L9.56074 4.15606ZM10.0007 17.2355L16.9247 10.2234C17.3243 9.8166 17.6243 9.36899 17.8248 8.88052C18.0265 8.38882 18.1274 7.85574 18.1274 7.28125C18.1274 6.70865 18.0271 6.17708 17.8265 5.68653C17.6258 5.19599 17.3249 4.74647 16.9236 4.33799C16.7793 4.19112 16.6263 4.05697 16.4647 3.93555C16.6257 4.0568 16.7781 4.19075 16.9219 4.33739C17.3219 4.74344 17.6222 5.19048 17.8227 5.67849C18.0244 6.16922 18.1252 6.7014 18.1252 7.275C18.1252 7.84702 18.0249 8.37791 17.8242 8.86767C17.6235 9.35744 17.3224 9.80608 16.921 10.2136L10.0007 17.2207L3.08103 10.2142C2.67875 9.8058 2.37722 9.3562 2.17642 8.86539C1.97628 8.3762 1.87621 7.84607 1.87621 7.275C1.87621 6.70298 1.97656 6.17209 2.17727 5.68232C2.37798 5.19256 2.67904 4.74392 3.08045 4.3364C3.21023 4.20425 3.34703 4.0824 3.49087 3.97086C3.34604 4.0829 3.20827 4.20536 3.07756 4.33826C2.67669 4.74634 2.37596 5.1954 2.17538 5.68545C1.97447 6.17627 1.87402 6.7082 1.87402 7.28125C1.87402 7.85386 1.97434 8.38543 2.17498 8.87598C2.37561 9.36652 2.67656 9.81603 3.07783 10.2245L10.0007 17.2355ZM8.49855 4.01075C8.62422 4.11147 8.74442 4.22025 8.85915 4.33709L10.0016 5.50648L11.1357 4.34991C11.3112 4.16828 11.5002 4.00583 11.7029 3.86257C11.9364 3.69744 12.188 3.55779 12.4575 3.44363C12.7093 3.33703 12.9664 3.25718 13.229 3.20407C13.3154 3.18659 13.4024 3.172 13.49 3.16032C13.4019 3.17204 13.3144 3.18668 13.2274 3.20424C12.9676 3.2567 12.7131 3.33522 12.4638 3.43979C12.2131 3.54494 11.9775 3.67233 11.757 3.82195C11.5365 3.97159 11.3311 4.14347 11.1407 4.33758L10.0007 5.48788L8.86304 4.33996C8.74703 4.222 8.62553 4.11226 8.49855 4.01075ZM10.4384 5.95365L10.0007 6.4L9.56386 5.95283L8.41321 4.775C8.09441 4.45035 7.7141 4.19247 7.29452 4.01643C6.87493 3.8404 6.42448 3.74973 5.96946 3.74973C5.51445 3.74973 5.06399 3.8404 4.64441 4.01643C4.22482 4.19247 3.84452 4.45035 3.52571 4.775C2.8692 5.44149 2.50121 6.33947 2.50121 7.275C2.50121 8.21053 2.8692 9.10851 3.52571 9.775L9.5615 15.8865L10.0007 16.3312L10.4399 15.8865L16.4757 9.775C17.1322 9.10851 17.5002 8.21053 17.5002 7.275C17.5002 6.33947 17.1322 5.44149 16.4757 4.775C16.1571 4.45011 15.7768 4.1921 15.3572 4.01609C14.9376 3.84008 14.487 3.74962 14.032 3.75C13.5748 3.74935 13.1222 3.84089 12.7013 4.01915C12.2803 4.19741 11.8996 4.45874 11.582 4.7875L10.4384 5.95365Z" fill="rgb(37,43,66)" fill-rule="evenodd" />
</svg>
