<svg viewBox="0 0 70 76" xmlns="http://www.w3.org/2000/svg" xmlns:xlink="http://www.w3.org/1999/xlink" width="70.000000" height="76.000000" fill="none" clip-path="url(#clipPath_2)" customFrame="url(#clipPath_2)">
	<defs>
		<clipPath id="clipPath_2">
			<rect width="70.000000" height="76.000000" x="0.000000" y="0.000000" rx="10.000000" fill="rgb(255,255,255)" />
		</clipPath>
		<clipPath id="clipPath_3">
			<rect width="32.000000" height="32.000000" x="19.000000" y="22.000000" fill="rgb(255,255,255)" />
		</clipPath>
	</defs>
	<rect id="fixed-width" width="70.000000" height="76.000000" x="0.000000" y="0.000000" rx="10.000000" fill="rgb(35.0182,166.287,240.125)" />
	<g id="icon cool-icon-32" clip-path="url(#clipPath_3)" customFrame="url(#clipPath_3)">
		<rect id="icon cool-icon-32" width="32.000000" height="32.000000" x="19.000000" y="22.000000" />
		<path id="coolicon" d="M36.1962 51.2905C35.4886 51.2926 34.8096 51.0112 34.3108 50.5092L23.8615 40.0625C23.3101 39.513 23.0275 38.7493 23.0882 37.9732L23.7548 29.2185C23.8501 27.9008 24.9007 26.8541 26.2188 26.7639L34.9735 26.0972C35.0428 26.0825 35.1108 26.0825 35.1802 26.0825C35.8864 26.0817 36.5637 26.363 37.0615 26.8639L47.5108 37.3092C48.0112 37.8093 48.2923 38.4878 48.2923 39.1952C48.2923 39.9026 48.0112 40.5811 47.5108 41.0812L38.0815 50.5092C37.5826 51.0109 36.9037 51.2923 36.1962 51.2905ZM30.5388 30.8719C29.3319 30.8722 28.2757 31.6831 27.9636 32.849C27.6516 34.0148 28.1614 35.2449 29.2067 35.8482C30.2521 36.4514 31.5722 36.2774 32.4255 35.4239L32.4348 35.4159L32.4442 35.4065L32.4335 35.4159C33.1914 34.6513 33.4152 33.5059 33.0009 32.5123C32.5866 31.5186 31.6154 30.8715 30.5388 30.8719Z" fill="rgb(255,255,255)" fill-rule="nonzero" />
	</g>
</svg>
