<svg viewBox="0 0 16 14.6667" xmlns="http://www.w3.org/2000/svg" xmlns:xlink="http://www.w3.org/1999/xlink" width="16.000000" height="14.666748" fill="none">
	<rect id="icon ant-design-area-chart-outlined" width="16.000000" height="14.666667" x="0.000000" y="0.000000" fill="rgb(255,255,255)" fill-opacity="0" />
	<path id="Vector" d="M15.8333 13.1667L1.5 13.1667L1.5 0.166667C1.5 0.075 1.425 0 1.33333 0L0.166667 0C0.075 0 0 0.075 0 0.166667L0 14.5C0 14.5917 0.075 14.6667 0.166667 14.6667L15.8333 14.6667C15.925 14.6667 16 14.5917 16 14.5L16 13.3333C16 13.2417 15.925 13.1667 15.8333 13.1667ZM3 11.8333L14.1667 11.8333C14.2583 11.8333 14.3333 11.7583 14.3333 11.6667L14.3333 2.58333C14.3333 2.43333 14.1521 2.36042 14.0479 2.46458L9.66667 6.84583L7.05417 4.2625C7.02284 4.23148 6.98054 4.21408 6.93646 4.21408C6.89238 4.21408 6.85007 4.23148 6.81875 4.2625L2.88125 8.2125C2.86596 8.22782 2.85385 8.24602 2.84562 8.26604C2.8374 8.28607 2.83322 8.30752 2.83333 8.32917L2.83333 11.6667C2.83333 11.7583 2.90833 11.8333 3 11.8333Z" fill="rgb(64.1877,187,21.0375)" fill-rule="nonzero" />
</svg>
